<?xml version="1.0" standalone="no"?>
<!DOCTYPE svg PUBLIC "-//W3C//DTD SVG 20010904//EN"
 "http://www.w3.org/TR/2001/REC-SVG-20010904/DTD/svg10.dtd">
<svg version="1.0" xmlns="http://www.w3.org/2000/svg"
 width="436.000000pt" height="436.000000pt" viewBox="0 0 436.000000 436.000000"
 preserveAspectRatio="xMidYMid meet">
<metadata>
Created by potrace 1.11, written by Peter Selinger 2001-2013
</metadata>
<g transform="translate(0.000000,436.000000) scale(0.100000,-0.100000)"
fill="#000000" stroke="none">
<path d="M251 3880 c-4 -3 -7 -216 -6 -475 l0 -470 120 -5 120 -5 1 -232 c0
-128 3 -236 7 -240 5 -4 58 -7 120 -8 l112 0 0 -360 0 -360 -115 1 c-63 0
-117 -3 -120 -7 -3 -4 -5 -57 -4 -118 1 -95 -2 -111 -15 -112 -9 -1 -63 -2
-121 -3 l-105 -1 0 -120 0 -120 -110 -1 c-60 -1 -116 -2 -122 -3 -10 -1 -13
-79 -13 -356 0 -195 3 -356 8 -356 4 -1 113 -2 242 -3 l235 -1 0 -38 -1 -37
1805 2 1805 3 1 268 c0 168 -4 271 -10 276 -5 4 -61 7 -122 6 l-113 0 0 117
c0 105 -2 118 -17 119 -10 0 -117 2 -238 2 l-220 2 0 240 0 240 354 2 c194 1
356 4 359 8 3 3 7 54 8 113 0 59 2 110 3 113 0 3 52 6 114 6 l112 -1 1 362 0
362 -718 0 -718 0 0 120 0 121 -236 -1 c-130 -1 -238 1 -241 4 -3 3 -5 57 -4
121 l2 115 -240 0 -241 0 0 120 0 120 -120 0 c-107 0 -120 2 -121 18 0 9 0 63
1 120 l1 102 -28 1 c-15 0 -123 0 -240 1 -151 0 -213 3 -215 11 -3 7 -4 58 -3
115 1 56 -1 103 -4 103 -19 4 -944 3 -950 -1z"/>
</g>
</svg>
